<svg xmlns="http://www.w3.org/2000/svg" xmlns:xlink="http://www.w3.org/1999/xlink" width="50" height="50" viewBox="0 0 50 50"><defs><style>.a{fill:none;}.b{clip-path:url(#a);}.c{fill:red;}</style><clipPath id="a"><rect class="a" width="153" height="50"/></clipPath></defs><g class="b"><path class="c" d="M764.658,472.33l-21.7-11.734-.052-.024a3.317,3.317,0,0,0-3.289-.022l-21.859,11.818a2.973,2.973,0,0,0-1.571,2.608v20.284a2.991,2.991,0,0,0,1.576,2.618l21.93,11.854a3.257,3.257,0,0,0,3.1,0l21.874-11.825a2.978,2.978,0,0,0,1.568-2.608v-20.36A2.972,2.972,0,0,0,764.658,472.33Zm-2.931,6.312V491.6l-11.982-6.478Zm-38.98-3.948,18.491-10,18.494,10-18.494,10Zm14.636,12.939,2.4,1.3a3.055,3.055,0,0,0,2.919,0l2.4-1.3,14.636,7.913-18.494,10-18.491-10Zm-4.649-2.513-12.08,6.529V478.587Z" transform="translate(-716.183 -460.124)"/></g></svg>